<svg xmlns="http://www.w3.org/2000/svg" xmlns:xlink="http://www.w3.org/1999/xlink" contentStyleType="text/css" height="996px" preserveAspectRatio="none" style="width:1433px;height:996px;background:#FFFFFF;" version="1.1" viewBox="0 0 1433 996" width="1433px" zoomAndPan="magnify"><defs/><g><!--class Employee--><g id="elem_Employee"><rect codeLine="1" fill="#F1F1F1" height="394.2539" id="Employee" rx="2.5" ry="2.5" style="stroke:#181818;stroke-width:0.5;" width="311.9336" x="935.75" y="354.91"/><ellipse cx="1054.9517" cy="370.91" fill="#A9DCDF" rx="11" ry="11" style="stroke:#181818;stroke-width:1.0;"/><path d="M1055.0649,366.2581 L1053.9111,371.3299 L1056.2271,371.3299 Z M1053.5708,364.0169 L1056.5674,364.0169 L1059.9126,376.41 L1057.4639,376.41 L1056.7002,373.347 L1053.4214,373.347 L1052.6743,376.41 L1050.2256,376.41 Z " fill="#000000"/><text fill="#000000" font-family="sans-serif" font-size="14" font-style="italic" lengthAdjust="spacing" textLength="65.0303" x="1075.4517" y="376.201">Employee</text><line style="stroke:#181818;stroke-width:0.5;" x1="936.75" x2="1246.6836" y1="386.91" y2="386.91"/><rect fill="none" height="6" style="stroke:#C82930;stroke-width:1.0;" width="6" x="943.75" y="397.6541"/><text fill="#000000" font-family="sans-serif" font-size="14" lengthAdjust="spacing" textLength="39.6895" x="955.75" y="404.4452">id: int</text><rect fill="none" height="6" style="stroke:#C82930;stroke-width:1.0;" width="6" x="943.75" y="414.1424"/><text fill="#000000" font-family="sans-serif" font-size="14" lengthAdjust="spacing" textLength="86.1191" x="955.75" y="420.9334">name: String</text><rect fill="none" height="6" style="stroke:#C82930;stroke-width:1.0;" width="6" x="943.75" y="430.6307"/><text fill="#000000" font-family="sans-serif" font-size="14" lengthAdjust="spacing" textLength="127.7432" x="955.75" y="437.4217">department: String</text><rect fill="none" height="6" style="stroke:#C82930;stroke-width:1.0;" width="6" x="943.75" y="447.119"/><text fill="#000000" font-family="sans-serif" font-size="14" lengthAdjust="spacing" textLength="75.0039" x="955.75" y="453.91">role: String</text><rect fill="none" height="6" style="stroke:#C82930;stroke-width:1.0;" width="6" x="943.75" y="463.6073"/><text fill="#000000" font-family="sans-serif" font-size="14" lengthAdjust="spacing" textLength="179.0605" x="955.75" y="470.3983">workingHoursPerWeek: int</text><rect fill="none" height="6" style="stroke:#C82930;stroke-width:1.0;" width="6" x="943.75" y="480.0955"/><text fill="#000000" font-family="sans-serif" font-size="14" lengthAdjust="spacing" textLength="95.3066" x="955.75" y="486.8866">salary: double</text><line style="stroke:#181818;stroke-width:0.5;" x1="936.75" x2="1246.6836" y1="493.8397" y2="493.8397"/><ellipse cx="946.75" cy="507.5838" fill="#84BE84" rx="3" ry="3" style="stroke:#038048;stroke-width:1.0;"/><text fill="#000000" font-family="sans-serif" font-size="14" lengthAdjust="spacing" textLength="70.5469" x="955.75" y="511.3748">getId(): int</text><ellipse cx="946.75" cy="524.0721" fill="#84BE84" rx="3" ry="3" style="stroke:#038048;stroke-width:1.0;"/><text fill="#000000" font-family="sans-serif" font-size="14" lengthAdjust="spacing" textLength="119.376" x="955.75" y="527.8631">setId(id: int): void</text><ellipse cx="946.75" cy="540.5604" fill="#84BE84" rx="3" ry="3" style="stroke:#038048;stroke-width:1.0;"/><text fill="#000000" font-family="sans-serif" font-size="14" lengthAdjust="spacing" textLength="118.6445" x="955.75" y="544.3514">getName(): String</text><ellipse cx="946.75" cy="557.0487" fill="#84BE84" rx="3" ry="3" style="stroke:#038048;stroke-width:1.0;"/><text fill="#000000" font-family="sans-serif" font-size="14" lengthAdjust="spacing" textLength="191.9053" x="955.75" y="560.8397">setName(name: String): void</text><ellipse cx="946.75" cy="573.537" fill="#84BE84" rx="3" ry="3" style="stroke:#038048;stroke-width:1.0;"/><text fill="#000000" font-family="sans-serif" font-size="14" lengthAdjust="spacing" textLength="160.2891" x="955.75" y="577.328">getDepartment(): String</text><ellipse cx="946.75" cy="590.0252" fill="#84BE84" rx="3" ry="3" style="stroke:#038048;stroke-width:1.0;"/><text fill="#000000" font-family="sans-serif" font-size="14" lengthAdjust="spacing" textLength="275.1738" x="955.75" y="593.8163">setDepartment(department: String): void</text><ellipse cx="946.75" cy="606.5135" fill="#84BE84" rx="3" ry="3" style="stroke:#038048;stroke-width:1.0;"/><text fill="#000000" font-family="sans-serif" font-size="14" lengthAdjust="spacing" textLength="108.999" x="955.75" y="610.3045">getRole(): String</text><ellipse cx="946.75" cy="623.0018" fill="#84BE84" rx="3" ry="3" style="stroke:#038048;stroke-width:1.0;"/><text fill="#000000" font-family="sans-serif" font-size="14" lengthAdjust="spacing" textLength="171.1445" x="955.75" y="626.7928">setRole(role: String): void</text><ellipse cx="946.75" cy="639.4901" fill="#84BE84" rx="3" ry="3" style="stroke:#038048;stroke-width:1.0;"/><text fill="#000000" font-family="sans-serif" font-size="14" lengthAdjust="spacing" textLength="211.1211" x="955.75" y="643.2811">getWorkingHoursPerWeek(): int</text><ellipse cx="946.75" cy="655.9784" fill="#84BE84" rx="3" ry="3" style="stroke:#038048;stroke-width:1.0;"/><text fill="#000000" font-family="sans-serif" font-size="14" lengthAdjust="spacing" textLength="285.9336" x="955.75" y="659.7694">setWorkingHoursPerWeek(hours: int): void</text><ellipse cx="946.75" cy="672.4666" fill="#84BE84" rx="3" ry="3" style="stroke:#038048;stroke-width:1.0;"/><text fill="#000000" font-family="sans-serif" font-size="14" lengthAdjust="spacing" textLength="126.5811" x="955.75" y="676.2577">getSalary(): double</text><ellipse cx="946.75" cy="688.9549" fill="#84BE84" rx="3" ry="3" style="stroke:#038048;stroke-width:1.0;"/><text fill="#000000" font-family="sans-serif" font-size="14" lengthAdjust="spacing" textLength="202.2412" x="955.75" y="692.7459">setSalary(salary: double): void</text><ellipse cx="946.75" cy="705.4432" fill="#84BE84" rx="3" ry="3" style="stroke:#038048;stroke-width:1.0;"/><text fill="#000000" font-family="sans-serif" font-size="14" lengthAdjust="spacing" textLength="94.5615" x="955.75" y="709.2342">clockIn(): void</text><ellipse cx="946.75" cy="721.9315" fill="#84BE84" rx="3" ry="3" style="stroke:#038048;stroke-width:1.0;"/><text fill="#000000" font-family="sans-serif" font-size="14" lengthAdjust="spacing" textLength="106.6406" x="955.75" y="725.7225">clockOut(): void</text><ellipse cx="946.75" cy="738.4198" fill="#84BE84" rx="3" ry="3" style="stroke:#038048;stroke-width:1.0;"/><text fill="#000000" font-family="sans-serif" font-size="14" lengthAdjust="spacing" textLength="155.6475" x="955.75" y="742.2108">trackWorkHours(): void</text></g><!--class FullTimeEmployee--><g id="elem_FullTimeEmployee"><rect codeLine="25" fill="#F1F1F1" height="97.4648" id="FullTimeEmployee" rx="2.5" ry="2.5" style="stroke:#181818;stroke-width:0.5;" width="181.6475" x="899.89" y="850.38"/><ellipse cx="926.8418" cy="866.38" fill="#ADD1B2" rx="11" ry="11" style="stroke:#181818;stroke-width:1.0;"/><path d="M929.815,872.0231 Q929.2339,872.3219 928.5947,872.4713 Q927.9556,872.6207 927.25,872.6207 Q924.7432,872.6207 923.4233,870.9689 Q922.1035,869.317 922.1035,866.1959 Q922.1035,863.0665 923.4233,861.4147 Q924.7432,859.7628 927.25,859.7628 Q927.9556,859.7628 928.603,859.9122 Q929.2505,860.0616 929.815,860.3605 L929.815,863.0831 Q929.1841,862.5021 928.5906,862.2323 Q927.9971,861.9625 927.3662,861.9625 Q926.0215,861.9625 925.3367,863.0292 Q924.6519,864.0958 924.6519,866.1959 Q924.6519,868.2877 925.3367,869.3544 Q926.0215,870.421 927.3662,870.421 Q927.9971,870.421 928.5906,870.1512 Q929.1841,869.8815 929.815,869.3004 Z " fill="#000000"/><text fill="#000000" font-family="sans-serif" font-size="14" lengthAdjust="spacing" textLength="123.0879" x="943.4978" y="871.671">FullTimeEmployee</text><line style="stroke:#181818;stroke-width:0.5;" x1="900.89" x2="1080.5375" y1="882.38" y2="882.38"/><line style="stroke:#181818;stroke-width:0.5;" x1="900.89" x2="1080.5375" y1="890.38" y2="890.38"/><ellipse cx="910.89" cy="904.1241" fill="#84BE84" rx="3" ry="3" style="stroke:#038048;stroke-width:1.0;"/><text fill="#000000" font-family="sans-serif" font-size="14" lengthAdjust="spacing" textLength="94.5615" x="919.89" y="907.9152">clockIn(): void</text><ellipse cx="910.89" cy="920.6124" fill="#84BE84" rx="3" ry="3" style="stroke:#038048;stroke-width:1.0;"/><text fill="#000000" font-family="sans-serif" font-size="14" lengthAdjust="spacing" textLength="106.6406" x="919.89" y="924.4034">clockOut(): void</text><ellipse cx="910.89" cy="937.1007" fill="#84BE84" rx="3" ry="3" style="stroke:#038048;stroke-width:1.0;"/><text fill="#000000" font-family="sans-serif" font-size="14" lengthAdjust="spacing" textLength="155.6475" x="919.89" y="940.8917">trackWorkHours(): void</text></g><!--class PartTimeEmployee--><g id="elem_PartTimeEmployee"><rect codeLine="31" fill="#F1F1F1" height="97.4648" id="PartTimeEmployee" rx="2.5" ry="2.5" style="stroke:#181818;stroke-width:0.5;" width="181.6475" x="1116.89" y="850.38"/><ellipse cx="1142.8759" cy="866.38" fill="#ADD1B2" rx="11" ry="11" style="stroke:#181818;stroke-width:1.0;"/><path d="M1145.849,872.0231 Q1145.268,872.3219 1144.6288,872.4713 Q1143.9897,872.6207 1143.2841,872.6207 Q1140.7773,872.6207 1139.4574,870.9689 Q1138.1376,869.317 1138.1376,866.1959 Q1138.1376,863.0665 1139.4574,861.4147 Q1140.7773,859.7628 1143.2841,859.7628 Q1143.9897,859.7628 1144.6371,859.9122 Q1145.2846,860.0616 1145.849,860.3605 L1145.849,863.0831 Q1145.2182,862.5021 1144.6247,862.2323 Q1144.0312,861.9625 1143.4003,861.9625 Q1142.0556,861.9625 1141.3708,863.0292 Q1140.6859,864.0958 1140.6859,866.1959 Q1140.6859,868.2877 1141.3708,869.3544 Q1142.0556,870.421 1143.4003,870.421 Q1144.0312,870.421 1144.6247,870.1512 Q1145.2182,869.8815 1145.849,869.3004 Z " fill="#000000"/><text fill="#000000" font-family="sans-serif" font-size="14" lengthAdjust="spacing" textLength="125.2344" x="1159.3172" y="871.671">PartTimeEmployee</text><line style="stroke:#181818;stroke-width:0.5;" x1="1117.89" x2="1297.5375" y1="882.38" y2="882.38"/><line style="stroke:#181818;stroke-width:0.5;" x1="1117.89" x2="1297.5375" y1="890.38" y2="890.38"/><ellipse cx="1127.89" cy="904.1241" fill="#84BE84" rx="3" ry="3" style="stroke:#038048;stroke-width:1.0;"/><text fill="#000000" font-family="sans-serif" font-size="14" lengthAdjust="spacing" textLength="94.5615" x="1136.89" y="907.9152">clockIn(): void</text><ellipse cx="1127.89" cy="920.6124" fill="#84BE84" rx="3" ry="3" style="stroke:#038048;stroke-width:1.0;"/><text fill="#000000" font-family="sans-serif" font-size="14" lengthAdjust="spacing" textLength="106.6406" x="1136.89" y="924.4034">clockOut(): void</text><ellipse cx="1127.89" cy="937.1007" fill="#84BE84" rx="3" ry="3" style="stroke:#038048;stroke-width:1.0;"/><text fill="#000000" font-family="sans-serif" font-size="14" lengthAdjust="spacing" textLength="155.6475" x="1136.89" y="940.8917">trackWorkHours(): void</text></g><!--class EmployeeBuilder--><g id="elem_EmployeeBuilder"><rect codeLine="37" fill="#F1F1F1" height="163.418" id="EmployeeBuilder" rx="2.5" ry="2.5" style="stroke:#181818;stroke-width:0.5;" width="395.4346" x="335" y="470.33"/><ellipse cx="472.3647" cy="486.33" fill="#B4A7E5" rx="11" ry="11" style="stroke:#181818;stroke-width:1.0;"/><path d="M468.2925,482.0951 L468.2925,479.9369 L475.6719,479.9369 L475.6719,482.0951 L473.2065,482.0951 L473.2065,490.1718 L475.6719,490.1718 L475.6719,492.33 L468.2925,492.33 L468.2925,490.1718 L470.7578,490.1718 L470.7578,482.0951 Z " fill="#000000"/><text fill="#000000" font-family="sans-serif" font-size="14" font-style="italic" lengthAdjust="spacing" textLength="112.2051" x="492.8647" y="491.621">EmployeeBuilder</text><line style="stroke:#181818;stroke-width:0.5;" x1="336" x2="729.4346" y1="502.33" y2="502.33"/><line style="stroke:#181818;stroke-width:0.5;" x1="336" x2="729.4346" y1="510.33" y2="510.33"/><ellipse cx="346" cy="524.0741" fill="#84BE84" rx="3" ry="3" style="stroke:#038048;stroke-width:1.0;"/><text fill="#000000" font-family="sans-serif" font-size="14" lengthAdjust="spacing" textLength="202.877" x="355" y="527.8652">setId(id: int): EmployeeBuilder</text><ellipse cx="346" cy="540.5624" fill="#84BE84" rx="3" ry="3" style="stroke:#038048;stroke-width:1.0;"/><text fill="#000000" font-family="sans-serif" font-size="14" lengthAdjust="spacing" textLength="275.4063" x="355" y="544.3534">setName(name: String): EmployeeBuilder</text><ellipse cx="346" cy="557.0507" fill="#84BE84" rx="3" ry="3" style="stroke:#038048;stroke-width:1.0;"/><text fill="#000000" font-family="sans-serif" font-size="14" lengthAdjust="spacing" textLength="358.6748" x="355" y="560.8417">setDepartment(department: String): EmployeeBuilder</text><ellipse cx="346" cy="573.539" fill="#84BE84" rx="3" ry="3" style="stroke:#038048;stroke-width:1.0;"/><text fill="#000000" font-family="sans-serif" font-size="14" lengthAdjust="spacing" textLength="254.6455" x="355" y="577.33">setRole(role: String): EmployeeBuilder</text><ellipse cx="346" cy="590.0273" fill="#84BE84" rx="3" ry="3" style="stroke:#038048;stroke-width:1.0;"/><text fill="#000000" font-family="sans-serif" font-size="14" lengthAdjust="spacing" textLength="369.4346" x="355" y="593.8183">setWorkingHoursPerWeek(hours: int): EmployeeBuilder</text><ellipse cx="346" cy="606.5155" fill="#84BE84" rx="3" ry="3" style="stroke:#038048;stroke-width:1.0;"/><text fill="#000000" font-family="sans-serif" font-size="14" lengthAdjust="spacing" textLength="285.7422" x="355" y="610.3066">setSalary(salary: double): EmployeeBuilder</text><ellipse cx="346" cy="623.0038" fill="#84BE84" rx="3" ry="3" style="stroke:#038048;stroke-width:1.0;"/><text fill="#000000" font-family="sans-serif" font-size="14" lengthAdjust="spacing" textLength="117.4004" x="355" y="626.7948">build(): Employee</text></g><!--class FullTimeEmployeeBuilder--><g id="elem_FullTimeEmployeeBuilder"><rect codeLine="47" fill="#F1F1F1" height="179.9063" id="FullTimeEmployeeBuilder" rx="2.5" ry="2.5" style="stroke:#181818;stroke-width:0.5;" width="395.4346" x="7" y="809.16"/><ellipse cx="115.3359" cy="825.16" fill="#ADD1B2" rx="11" ry="11" style="stroke:#181818;stroke-width:1.0;"/><path d="M118.3091,830.8031 Q117.728,831.1019 117.0889,831.2513 Q116.4497,831.4007 115.7441,831.4007 Q113.2373,831.4007 111.9175,829.7489 Q110.5977,828.097 110.5977,824.9759 Q110.5977,821.8465 111.9175,820.1947 Q113.2373,818.5428 115.7441,818.5428 Q116.4497,818.5428 117.0972,818.6922 Q117.7446,818.8416 118.3091,819.1405 L118.3091,821.8631 Q117.6782,821.2821 117.0847,821.0123 Q116.4912,820.7425 115.8604,820.7425 Q114.5156,820.7425 113.8308,821.8092 Q113.146,822.8758 113.146,824.9759 Q113.146,827.0677 113.8308,828.1344 Q114.5156,829.201 115.8604,829.201 Q116.4912,829.201 117.0847,828.9312 Q117.6782,828.6615 118.3091,828.0804 Z " fill="#000000"/><text fill="#000000" font-family="sans-serif" font-size="14" lengthAdjust="spacing" textLength="170.2627" x="135.8359" y="830.451">FullTimeEmployeeBuilder</text><line style="stroke:#181818;stroke-width:0.5;" x1="8" x2="401.4346" y1="841.16" y2="841.16"/><rect fill="none" height="6" style="stroke:#C82930;stroke-width:1.0;" width="6" x="15" y="851.9041"/><text fill="#000000" font-family="sans-serif" font-size="14" lengthAdjust="spacing" textLength="197.1895" x="27" y="858.6952">employee: FullTimeEmployee</text><line style="stroke:#181818;stroke-width:0.5;" x1="8" x2="401.4346" y1="865.6483" y2="865.6483"/><ellipse cx="18" cy="879.3924" fill="#84BE84" rx="3" ry="3" style="stroke:#038048;stroke-width:1.0;"/><text fill="#000000" font-family="sans-serif" font-size="14" lengthAdjust="spacing" textLength="202.877" x="27" y="883.1834">setId(id: int): EmployeeBuilder</text><ellipse cx="18" cy="895.8807" fill="#84BE84" rx="3" ry="3" style="stroke:#038048;stroke-width:1.0;"/><text fill="#000000" font-family="sans-serif" font-size="14" lengthAdjust="spacing" textLength="275.4063" x="27" y="899.6717">setName(name: String): EmployeeBuilder</text><ellipse cx="18" cy="912.369" fill="#84BE84" rx="3" ry="3" style="stroke:#038048;stroke-width:1.0;"/><text fill="#000000" font-family="sans-serif" font-size="14" lengthAdjust="spacing" textLength="358.6748" x="27" y="916.16">setDepartment(department: String): EmployeeBuilder</text><ellipse cx="18" cy="928.8573" fill="#84BE84" rx="3" ry="3" style="stroke:#038048;stroke-width:1.0;"/><text fill="#000000" font-family="sans-serif" font-size="14" lengthAdjust="spacing" textLength="254.6455" x="27" y="932.6483">setRole(role: String): EmployeeBuilder</text><ellipse cx="18" cy="945.3455" fill="#84BE84" rx="3" ry="3" style="stroke:#038048;stroke-width:1.0;"/><text fill="#000000" font-family="sans-serif" font-size="14" lengthAdjust="spacing" textLength="369.4346" x="27" y="949.1366">setWorkingHoursPerWeek(hours: int): EmployeeBuilder</text><ellipse cx="18" cy="961.8338" fill="#84BE84" rx="3" ry="3" style="stroke:#038048;stroke-width:1.0;"/><text fill="#000000" font-family="sans-serif" font-size="14" lengthAdjust="spacing" textLength="285.7422" x="27" y="965.6248">setSalary(salary: double): EmployeeBuilder</text><ellipse cx="18" cy="978.3221" fill="#84BE84" rx="3" ry="3" style="stroke:#038048;stroke-width:1.0;"/><text fill="#000000" font-family="sans-serif" font-size="14" lengthAdjust="spacing" textLength="117.4004" x="27" y="982.1131">build(): Employee</text></g><!--class PartTimeEmployeeBuilder--><g id="elem_PartTimeEmployeeBuilder"><rect codeLine="58" fill="#F1F1F1" height="179.9063" id="PartTimeEmployeeBuilder" rx="2.5" ry="2.5" style="stroke:#181818;stroke-width:0.5;" width="395.4346" x="437" y="809.16"/><ellipse cx="544.2627" cy="825.16" fill="#ADD1B2" rx="11" ry="11" style="stroke:#181818;stroke-width:1.0;"/><path d="M547.2358,830.8031 Q546.6548,831.1019 546.0156,831.2513 Q545.3765,831.4007 544.6709,831.4007 Q542.1641,831.4007 540.8442,829.7489 Q539.5244,828.097 539.5244,824.9759 Q539.5244,821.8465 540.8442,820.1947 Q542.1641,818.5428 544.6709,818.5428 Q545.3765,818.5428 546.0239,818.6922 Q546.6714,818.8416 547.2358,819.1405 L547.2358,821.8631 Q546.605,821.2821 546.0115,821.0123 Q545.418,820.7425 544.7871,820.7425 Q543.4424,820.7425 542.7576,821.8092 Q542.0728,822.8758 542.0728,824.9759 Q542.0728,827.0677 542.7576,828.1344 Q543.4424,829.201 544.7871,829.201 Q545.418,829.201 546.0115,828.9312 Q546.605,828.6615 547.2358,828.0804 Z " fill="#000000"/><text fill="#000000" font-family="sans-serif" font-size="14" lengthAdjust="spacing" textLength="172.4092" x="564.7627" y="830.451">PartTimeEmployeeBuilder</text><line style="stroke:#181818;stroke-width:0.5;" x1="438" x2="831.4346" y1="841.16" y2="841.16"/><rect fill="none" height="6" style="stroke:#C82930;stroke-width:1.0;" width="6" x="445" y="851.9041"/><text fill="#000000" font-family="sans-serif" font-size="14" lengthAdjust="spacing" textLength="199.3359" x="457" y="858.6952">employee: PartTimeEmployee</text><line style="stroke:#181818;stroke-width:0.5;" x1="438" x2="831.4346" y1="865.6483" y2="865.6483"/><ellipse cx="448" cy="879.3924" fill="#84BE84" rx="3" ry="3" style="stroke:#038048;stroke-width:1.0;"/><text fill="#000000" font-family="sans-serif" font-size="14" lengthAdjust="spacing" textLength="202.877" x="457" y="883.1834">setId(id: int): EmployeeBuilder</text><ellipse cx="448" cy="895.8807" fill="#84BE84" rx="3" ry="3" style="stroke:#038048;stroke-width:1.0;"/><text fill="#000000" font-family="sans-serif" font-size="14" lengthAdjust="spacing" textLength="275.4063" x="457" y="899.6717">setName(name: String): EmployeeBuilder</text><ellipse cx="448" cy="912.369" fill="#84BE84" rx="3" ry="3" style="stroke:#038048;stroke-width:1.0;"/><text fill="#000000" font-family="sans-serif" font-size="14" lengthAdjust="spacing" textLength="358.6748" x="457" y="916.16">setDepartment(department: String): EmployeeBuilder</text><ellipse cx="448" cy="928.8573" fill="#84BE84" rx="3" ry="3" style="stroke:#038048;stroke-width:1.0;"/><text fill="#000000" font-family="sans-serif" font-size="14" lengthAdjust="spacing" textLength="254.6455" x="457" y="932.6483">setRole(role: String): EmployeeBuilder</text><ellipse cx="448" cy="945.3455" fill="#84BE84" rx="3" ry="3" style="stroke:#038048;stroke-width:1.0;"/><text fill="#000000" font-family="sans-serif" font-size="14" lengthAdjust="spacing" textLength="369.4346" x="457" y="949.1366">setWorkingHoursPerWeek(hours: int): EmployeeBuilder</text><ellipse cx="448" cy="961.8338" fill="#84BE84" rx="3" ry="3" style="stroke:#038048;stroke-width:1.0;"/><text fill="#000000" font-family="sans-serif" font-size="14" lengthAdjust="spacing" textLength="285.7422" x="457" y="965.6248">setSalary(salary: double): EmployeeBuilder</text><ellipse cx="448" cy="978.3221" fill="#84BE84" rx="3" ry="3" style="stroke:#038048;stroke-width:1.0;"/><text fill="#000000" font-family="sans-serif" font-size="14" lengthAdjust="spacing" textLength="117.4004" x="457" y="982.1131">build(): Employee</text></g><!--class EmployeeDirector--><g id="elem_EmployeeDirector"><rect codeLine="69" fill="#F1F1F1" height="64.4883" id="EmployeeDirector" rx="2.5" ry="2.5" style="stroke:#181818;stroke-width:0.5;" width="406.6797" x="329.38" y="180.96"/><ellipse cx="468.5563" cy="196.96" fill="#ADD1B2" rx="11" ry="11" style="stroke:#181818;stroke-width:1.0;"/><path d="M471.5294,202.6031 Q470.9484,202.9019 470.3092,203.0513 Q469.67,203.2007 468.9645,203.2007 Q466.4576,203.2007 465.1378,201.5489 Q463.818,199.897 463.818,196.7759 Q463.818,193.6465 465.1378,191.9947 Q466.4576,190.3428 468.9645,190.3428 Q469.67,190.3428 470.3175,190.4922 Q470.965,190.6416 471.5294,190.9405 L471.5294,193.6631 Q470.8986,193.0821 470.305,192.8123 Q469.7115,192.5425 469.0807,192.5425 Q467.736,192.5425 467.0511,193.6092 Q466.3663,194.6758 466.3663,196.7759 Q466.3663,198.8677 467.0511,199.9344 Q467.736,201.001 469.0807,201.001 Q469.7115,201.001 470.305,200.7312 Q470.8986,200.4615 471.5294,199.8804 Z " fill="#000000"/><text fill="#000000" font-family="sans-serif" font-size="14" lengthAdjust="spacing" textLength="119.8271" x="489.0563" y="202.251">EmployeeDirector</text><line style="stroke:#181818;stroke-width:0.5;" x1="330.38" x2="735.0597" y1="212.96" y2="212.96"/><line style="stroke:#181818;stroke-width:0.5;" x1="330.38" x2="735.0597" y1="220.96" y2="220.96"/><ellipse cx="340.38" cy="234.7041" fill="#84BE84" rx="3" ry="3" style="stroke:#038048;stroke-width:1.0;"/><text fill="#000000" font-family="sans-serif" font-size="14" lengthAdjust="spacing" textLength="380.6797" x="349.38" y="238.4952">constructEmployee(builder: EmployeeBuilder): Employee</text></g><!--class EmployeeFactory--><g id="elem_EmployeeFactory"><rect codeLine="73" fill="#F1F1F1" height="64.4883" id="EmployeeFactory" rx="2.5" ry="2.5" style="stroke:#181818;stroke-width:0.5;" width="293.4834" x="770.98" y="180.96"/><ellipse cx="856.313" cy="196.96" fill="#ADD1B2" rx="11" ry="11" style="stroke:#181818;stroke-width:1.0;"/><path d="M859.2862,202.6031 Q858.7051,202.9019 858.0659,203.0513 Q857.4268,203.2007 856.7212,203.2007 Q854.2144,203.2007 852.8946,201.5489 Q851.5747,199.897 851.5747,196.7759 Q851.5747,193.6465 852.8946,191.9947 Q854.2144,190.3428 856.7212,190.3428 Q857.4268,190.3428 858.0742,190.4922 Q858.7217,190.6416 859.2862,190.9405 L859.2862,193.6631 Q858.6553,193.0821 858.0618,192.8123 Q857.4683,192.5425 856.8374,192.5425 Q855.4927,192.5425 854.8079,193.6092 Q854.1231,194.6758 854.1231,196.7759 Q854.1231,198.8677 854.8079,199.9344 Q855.4927,201.001 856.8374,201.001 Q857.4683,201.001 858.0618,200.7312 Q858.6553,200.4615 859.2862,199.8804 Z " fill="#000000"/><text fill="#000000" font-family="sans-serif" font-size="14" lengthAdjust="spacing" textLength="114.3174" x="876.813" y="202.251">EmployeeFactory</text><line style="stroke:#181818;stroke-width:0.5;" x1="771.98" x2="1063.4634" y1="212.96" y2="212.96"/><line style="stroke:#181818;stroke-width:0.5;" x1="771.98" x2="1063.4634" y1="220.96" y2="220.96"/><ellipse cx="781.98" cy="234.7041" fill="#84BE84" rx="3" ry="3" style="stroke:#038048;stroke-width:1.0;"/><text fill="#000000" font-family="sans-serif" font-size="14" lengthAdjust="spacing" textLength="267.4834" x="790.98" y="238.4952">createEmployee(type: String): Employee</text></g><!--class EmployeeManager--><g id="elem_EmployeeManager"><rect codeLine="77" fill="#F1F1F1" height="163.418" id="EmployeeManager" rx="2.5" ry="2.5" style="stroke:#181818;stroke-width:0.5;" width="327.0752" x="1099.18" y="131.49"/><ellipse cx="1196.7186" cy="147.49" fill="#ADD1B2" rx="11" ry="11" style="stroke:#181818;stroke-width:1.0;"/><path d="M1199.6917,153.1331 Q1199.1107,153.4319 1198.4715,153.5813 Q1197.8323,153.7307 1197.1268,153.7307 Q1194.6199,153.7307 1193.3001,152.0789 Q1191.9803,150.427 1191.9803,147.3059 Q1191.9803,144.1765 1193.3001,142.5247 Q1194.6199,140.8728 1197.1268,140.8728 Q1197.8323,140.8728 1198.4798,141.0222 Q1199.1273,141.1716 1199.6917,141.4705 L1199.6917,144.1931 Q1199.0609,143.6121 1198.4674,143.3423 Q1197.8738,143.0725 1197.243,143.0725 Q1195.8983,143.0725 1195.2134,144.1392 Q1194.5286,145.2058 1194.5286,147.3059 Q1194.5286,149.3977 1195.2134,150.4644 Q1195.8983,151.531 1197.243,151.531 Q1197.8738,151.531 1198.4674,151.2612 Q1199.0609,150.9915 1199.6917,150.4104 Z " fill="#000000"/><text fill="#000000" font-family="sans-serif" font-size="14" lengthAdjust="spacing" textLength="123.498" x="1217.2186" y="152.781">EmployeeManager</text><line style="stroke:#181818;stroke-width:0.5;" x1="1100.18" x2="1425.2552" y1="163.49" y2="163.49"/><rect fill="none" height="6" style="stroke:#C82930;stroke-width:1.0;" width="6" x="1107.18" y="174.2341"/><text fill="#000000" font-family="sans-serif" font-size="14" lengthAdjust="spacing" textLength="188.8564" x="1119.18" y="181.0252">instance: EmployeeManager</text><rect fill="none" height="6" style="stroke:#C82930;stroke-width:1.0;" width="6" x="1107.18" y="190.7224"/><text fill="#000000" font-family="sans-serif" font-size="14" lengthAdjust="spacing" textLength="192.4111" x="1119.18" y="197.5134">employees: List&lt;Employee&gt;</text><line style="stroke:#181818;stroke-width:0.5;" x1="1100.18" x2="1425.2552" y1="204.4666" y2="204.4666"/><ellipse cx="1110.18" cy="218.2107" fill="#84BE84" rx="3" ry="3" style="stroke:#038048;stroke-width:1.0;"/><text fill="#000000" font-family="sans-serif" font-size="14" lengthAdjust="spacing" textLength="219.7139" x="1119.18" y="222.0017">getInstance(): EmployeeManager</text><ellipse cx="1110.18" cy="234.699" fill="#84BE84" rx="3" ry="3" style="stroke:#038048;stroke-width:1.0;"/><text fill="#000000" font-family="sans-serif" font-size="14" lengthAdjust="spacing" textLength="276.1855" x="1119.18" y="238.49">addEmployee(employee: Employee): void</text><ellipse cx="1110.18" cy="251.1873" fill="#84BE84" rx="3" ry="3" style="stroke:#038048;stroke-width:1.0;"/><text fill="#000000" font-family="sans-serif" font-size="14" lengthAdjust="spacing" textLength="301.0752" x="1119.18" y="254.9783">removeEmployee(employee: Employee): void</text><ellipse cx="1110.18" cy="267.6755" fill="#84BE84" rx="3" ry="3" style="stroke:#038048;stroke-width:1.0;"/><text fill="#000000" font-family="sans-serif" font-size="14" lengthAdjust="spacing" textLength="209.4805" x="1119.18" y="271.4666">getEmployee(id: int): Employee</text><ellipse cx="1110.18" cy="284.1638" fill="#84BE84" rx="3" ry="3" style="stroke:#038048;stroke-width:1.0;"/><text fill="#000000" font-family="sans-serif" font-size="14" lengthAdjust="spacing" textLength="240.8232" x="1119.18" y="287.9548">getAllEmployees(): List&lt;Employee&gt;</text></g><!--class EMS--><g id="elem_EMS"><rect codeLine="87" fill="#F1F1F1" height="64.4883" id="EMS" rx="2.5" ry="2.5" style="stroke:#181818;stroke-width:0.5;" width="193.4668" x="820.98" y="7"/><ellipse cx="899.8701" cy="23" fill="#ADD1B2" rx="11" ry="11" style="stroke:#181818;stroke-width:1.0;"/><path d="M902.8433,28.6431 Q902.2622,28.9419 901.6231,29.0913 Q900.9839,29.2407 900.2783,29.2407 Q897.7715,29.2407 896.4517,27.5889 Q895.1319,25.937 895.1319,22.8159 Q895.1319,19.6865 896.4517,18.0347 Q897.7715,16.3828 900.2783,16.3828 Q900.9839,16.3828 901.6314,16.5322 Q902.2788,16.6816 902.8433,16.9805 L902.8433,19.7031 Q902.2124,19.1221 901.6189,18.8523 Q901.0254,18.5825 900.3946,18.5825 Q899.0498,18.5825 898.365,19.6492 Q897.6802,20.7158 897.6802,22.8159 Q897.6802,24.9077 898.365,25.9744 Q899.0498,27.041 900.3946,27.041 Q901.0254,27.041 901.6189,26.7712 Q902.2124,26.5015 902.8433,25.9204 Z " fill="#000000"/><text fill="#000000" font-family="sans-serif" font-size="14" lengthAdjust="spacing" textLength="27.1865" x="920.3701" y="28.291">EMS</text><line style="stroke:#181818;stroke-width:0.5;" x1="821.98" x2="1013.4468" y1="39" y2="39"/><line style="stroke:#181818;stroke-width:0.5;" x1="821.98" x2="1013.4468" y1="47" y2="47"/><ellipse cx="831.98" cy="60.7441" fill="#84BE84" rx="3" ry="3" style="stroke:#038048;stroke-width:1.0;"/><text fill="#000000" font-family="sans-serif" font-size="14" lengthAdjust="spacing" textLength="167.4668" x="840.98" y="64.5352">main(args: String[]): void</text></g><!--reverse link Employee to FullTimeEmployee--><g id="link_Employee_FullTimeEmployee"><path codeLine="91" d="M1029.1517,766.7947 C1018.1917,804.2247 1012.75,822.85 1004.81,849.98 " fill="none" id="Employee-backto-FullTimeEmployee" style="stroke:#181818;stroke-width:1.0;"/><polygon fill="none" points="1034.21,749.52,1023.3935,765.1086,1034.91,768.4808,1034.21,749.52" style="stroke:#181818;stroke-width:1.0;"/></g><!--reverse link Employee to PartTimeEmployee--><g id="link_Employee_PartTimeEmployee"><path codeLine="92" d="M1163.5045,766.5821 C1176.0845,804.0121 1182.42,822.85 1191.54,849.98 " fill="none" id="Employee-backto-PartTimeEmployee" style="stroke:#181818;stroke-width:1.0;"/><polygon fill="none" points="1157.77,749.52,1157.8171,768.4936,1169.1918,764.6706,1157.77,749.52" style="stroke:#181818;stroke-width:1.0;"/></g><!--reverse link EmployeeBuilder to FullTimeEmployeeBuilder--><g id="link_EmployeeBuilder_FullTimeEmployeeBuilder"><path codeLine="93" d="M443.418,646.9857 C393.518,699.4757 340.88,754.87 289.49,808.93 " fill="none" id="EmployeeBuilder-backto-FullTimeEmployeeBuilder" style="stroke:#181818;stroke-width:1.0;stroke-dasharray:7.0,7.0;"/><polygon fill="none" points="455.82,633.94,439.0694,642.8517,447.7666,651.1197,455.82,633.94" style="stroke:#181818;stroke-width:1.0;"/></g><!--reverse link EmployeeBuilder to PartTimeEmployeeBuilder--><g id="link_EmployeeBuilder_PartTimeEmployeeBuilder"><path codeLine="94" d="M561.7337,651.2013 C577.2537,703.6913 592.37,754.87 608.35,808.93 " fill="none" id="EmployeeBuilder-backto-PartTimeEmployeeBuilder" style="stroke:#181818;stroke-width:1.0;stroke-dasharray:7.0,7.0;"/><polygon fill="none" points="556.63,633.94,555.98,652.9025,567.4875,649.5,556.63,633.94" style="stroke:#181818;stroke-width:1.0;"/></g><!--link EmployeeDirector to EmployeeBuilder--><g id="link_EmployeeDirector_EmployeeBuilder"><path codeLine="95" d="M532.72,245.89 C532.72,296.74 532.72,392.14 532.72,464.08 " fill="none" id="EmployeeDirector-to-EmployeeBuilder" style="stroke:#181818;stroke-width:1.0;"/><polygon fill="#181818" points="532.72,470.08,536.72,461.08,532.72,465.08,528.72,461.08,532.72,470.08" style="stroke:#181818;stroke-width:1.0;"/></g><!--link EmployeeFactory to Employee--><g id="link_EmployeeFactory_Employee"><path codeLine="96" d="M934.09,245.89 C947.71,272.26 965.5965,306.8791 987.4965,349.2791 " fill="none" id="EmployeeFactory-to-Employee" style="stroke:#181818;stroke-width:1.0;"/><polygon fill="#181818" points="990.25,354.61,989.6737,344.778,987.9555,350.1676,982.5659,348.4493,990.25,354.61" style="stroke:#181818;stroke-width:1.0;"/></g><!--link EmployeeManager to Employee--><g id="link_EmployeeManager_Employee"><path codeLine="97" d="M1221.54,295.31 C1212.25,313.61 1204.7182,328.4611 1194.1582,349.2411 " fill="none" id="EmployeeManager-to-Employee" style="stroke:#181818;stroke-width:1.0;"/><polygon fill="#181818" points="1191.44,354.59,1199.0833,348.3787,1193.7052,350.1325,1191.9514,344.7544,1191.44,354.59" style="stroke:#181818;stroke-width:1.0;"/></g><!--link EMS to EmployeeManager--><g id="link_EMS_EmployeeManager"><path codeLine="98" d="M981.4,71.99 C1014.98,88.73 1052.5001,107.4234 1094.6101,128.4134 " fill="none" id="EMS-to-EmployeeManager" style="stroke:#181818;stroke-width:1.0;"/><polygon fill="#181818" points="1099.98,131.09,1093.7096,123.4951,1095.5051,128.8595,1090.1408,130.6549,1099.98,131.09" style="stroke:#181818;stroke-width:1.0;"/></g><!--link EMS to EmployeeFactory--><g id="link_EMS_EmployeeFactory"><path codeLine="99" d="M917.72,71.79 C917.72,102.72 917.72,143.61 917.72,174.57 " fill="none" id="EMS-to-EmployeeFactory" style="stroke:#181818;stroke-width:1.0;"/><polygon fill="#181818" points="917.72,180.57,921.72,171.57,917.72,175.57,913.72,171.57,917.72,180.57" style="stroke:#181818;stroke-width:1.0;"/></g><!--link EMS to EmployeeDirector--><g id="link_EMS_EmployeeDirector"><path codeLine="100" d="M846.65,71.99 C777.45,102.89 678.3385,147.1634 609.1685,178.0534 " fill="none" id="EMS-to-EmployeeDirector" style="stroke:#181818;stroke-width:1.0;"/><polygon fill="#181818" points="603.69,180.5,613.5388,180.4824,608.2554,178.4612,610.2767,173.1778,603.69,180.5" style="stroke:#181818;stroke-width:1.0;"/></g><!--SRC=[xLNBJkCm5DtdAxmCgi87H1NIZ021D31eYiG2iN2TIyUgOrUsmwY2-NUS43kE7y2YxCZEvvxxyCcnZTTAIqmq8WmhXSxQ7HDx0FHS8FDLY3OreboFAuvRgD5AIyet8zJ03alT0jT1G0eMSly9kJMh2z59TGFo3c3hLrUOORclKIEwDOC1NA0DwCkcF9fu2wG6Q9pCH9u4RIRsjPcnvtkTXvG1zpSGPPwwhQJolMYyvwZM7xFxL9K1zwM9CkzYaQBjfpX_-qLQajKWR5zb9groaRdoytp21DbUyZA1_kvq0FTUslRJ3QEvuF-YUFFNUSVOBMqXyDc1kzoOl_ELNOp681yn0NTUVdQKDI1Tez2Y0UzzLsR97ramcvXoNPRyeRcocJatfHFM_QhqmdcRpEMj48nu7J6_zJ-4_k41okiVCh_rFuJ-5Zcb4eWMqxr213VlTKUqPPJhjvfHatVhdkE-wdugAm5hzmzBlT-bb8hhN66EDvulg9aESm9ro0XyOwJyHPLUMjQ9zzYF9NnX_28BX9l6JJePqKBpErn2AvxWqtJJtt5Zyqwa7unPS7WOWirCEbsjdCOjfhp4SgEiilSFtfFYdghbIrN5jzey71swy9mkNuwFSvTecfmvyKNanAewGJcIjPNFAKAlp8D681-mVph4nyeHRiTw1G00]--></g></svg>